mtllib SpikeGate.mtl
g object_C43B1C


v 18.44436 -1.999996 -1E-06 
v 20 -1.999996 1.555634 
v 21.55563 -1.999996 -1E-06 
v 20 -12 1E-06 
v 20 -1.999996 -1.555636 
v 8.444361 -1.999996 -1E-06 
v 9.999995 -1.999996 1.555634 
v 11.55563 -1.999996 -1E-06 
v 9.999995 -12 1E-06 
v 9.999995 -1.999996 -1.555636 
v -11.55564 -1.999996 -1E-06 
v -10 -1.999996 1.555634 
v -8.44437 -1.999996 -1E-06 
v -10 -12 1E-06 
v -10 -1.999996 -1.555636 
v -21.55564 -1.999996 -1E-06 
v -20 -1.999996 1.555634 
v -18.44437 -1.999996 -1E-06 
v -20 -12 1E-06 
v -20 -1.999996 -1.555636 
v -1.555635 -1.999996 -1E-06 
v 0 -1.999996 1.555634 
v 1.555635 -1.999996 -1E-06 
v 0 -12 1E-06 
v 0 -1.999996 -1.555636 
v 18.44436 2.000023 0 
v 20 2.000023 1.555635 
v 21.55563 2.000023 0 
v 20 12.00002 0 
v 20 2.000023 -1.555635 
v 8.444361 2.000023 0 
v 9.999995 2.000023 1.555635 
v 11.55563 2.000023 0 
v 9.999995 12.00002 0 
v 9.999995 2.000023 -1.555635 
v -11.55564 2.000023 0 
v -10 2.000023 1.555635 
v -8.44437 2.000023 0 
v -10 12.00002 0 
v -10 2.000023 -1.555635 
v -21.55564 2.000023 0 
v -20 2.000023 1.555635 
v -18.44437 2.000023 0 
v -20 12.00002 0 
v -20 2.000023 -1.555635 
v -1.555635 2.000023 0 
v 0 2.000023 1.555635 
v 1.555635 2.000023 0 
v 0 12.00002 0 
v 0 2.000023 -1.555635 
v -28.6 -1.999996 -2.000001 
v -28.6 -1.999996 2.000001 
v -28.6 2.000004 -2.000001 
v -28.6 2.000004 2.000001 
v 28.6 -1.999996 -2.000001 
v 28.6 -1.999996 2.000001 
v 28.6 2.000004 -2.000001 
v 28.6 2.000004 2.000001 

vn -0.988115 -0.153715 0 
vn 9.999999E-07 -0.153715 0.988115 
vn 0.988115 -0.153715 0 
vn -4E-06 -0.9999999 4E-06 
vn 9.999999E-07 -0.153715 -0.988115 
vn -0.988115 -0.153715 0 
vn 0 -0.153715 0.988115 
vn 0.988115 -0.153715 0 
vn 0 -0.9999999 4E-06 
vn 0 -0.153715 -0.988115 
vn -0.988115 -0.153715 0 
vn 0 -0.153715 0.988115 
vn 0.988115 -0.153715 0 
vn 0 -0.9999999 4E-06 
vn 0 -0.153715 -0.988115 
vn -0.988115 -0.153715 0 
vn -9.999999E-07 -0.153715 0.988115 
vn 0.988115 -0.153715 0 
vn 4E-06 -0.9999999 4E-06 
vn -9.999999E-07 -0.153715 -0.988115 
vn -0.988115 -0.153715 0 
vn 0 -0.153714 0.988115 
vn 0.988115 -0.153715 0 
vn 0 -0.9999999 4E-06 
vn 0 -0.153715 -0.988115 
vn -0.988115 0.153715 0 
vn 9.999999E-07 0.153715 0.988115 
vn 0.988115 0.153715 0 
vn -4E-06 0.9999999 0 
vn 9.999999E-07 0.153715 -0.988115 
vn -0.988115 0.153715 0 
vn 0 0.153715 0.988115 
vn 0.988115 0.153715 0 
vn 0 0.9999999 0 
vn 0 0.153715 -0.988115 
vn -0.988115 0.153715 0 
vn 0 0.153715 0.988115 
vn 0.988115 0.153715 0 
vn 0 0.9999999 0 
vn 0 0.153715 -0.988115 
vn -0.988115 0.153715 0 
vn -9.999999E-07 0.153715 0.988115 
vn 0.988115 0.153715 0 
vn 4E-06 0.9999999 0 
vn -9.999999E-07 0.153715 -0.988115 
vn -0.988115 0.153715 0 
vn 0 0.153715 0.988115 
vn 0.988115 0.153715 0 
vn 0 0.9999999 0 
vn 0 0.153715 -0.988115 
vn 0 -0.7071069 -0.7071069 
vn 0 -0.7071069 0.7071069 
vn 0 0.7071069 -0.7071069 
vn 0 0.7071069 0.7071069 
vn 0 -0.7071069 -0.7071069 
vn 0 -0.7071069 0.7071069 
vn 0 0.7071069 -0.7071069 
vn 0 0.7071069 0.7071069 

vc 255 255 255 255 
vc 255 255 255 255 
vc 255 255 255 255 
vc 255 255 255 255 
vc 255 255 255 255 
vc 255 255 255 255 
vc 255 255 255 255 
vc 255 255 255 255 
vc 255 255 255 255 
vc 255 255 255 255 
vc 255 255 255 255 
vc 255 255 255 255 
vc 255 255 255 255 
vc 255 255 255 255 
vc 255 255 255 255 
vc 255 255 255 255 
vc 255 255 255 255 
vc 255 255 255 255 
vc 255 255 255 255 
vc 255 255 255 255 
vc 255 255 255 255 
vc 255 255 255 255 
vc 255 255 255 255 
vc 255 255 255 255 
vc 255 255 255 255 
vc 255 255 255 255 
vc 255 255 255 255 
vc 255 255 255 255 
vc 255 255 255 255 
vc 255 255 255 255 
vc 255 255 255 255 
vc 255 255 255 255 
vc 255 255 255 255 
vc 255 255 255 255 
vc 255 255 255 255 
vc 255 255 255 255 
vc 255 255 255 255 
vc 255 255 255 255 
vc 255 255 255 255 
vc 255 255 255 255 
vc 255 255 255 255 
vc 255 255 255 255 
vc 255 255 255 255 
vc 255 255 255 255 
vc 255 255 255 255 
vc 255 255 255 255 
vc 255 255 255 255 
vc 255 255 255 255 
vc 255 255 255 255 
vc 255 255 255 255 
vc 255 255 255 255 
vc 255 255 255 255 
vc 255 255 255 255 
vc 255 255 255 255 
vc 255 255 255 255 
vc 255 255 255 255 
vc 255 255 255 255 
vc 255 255 255 255 
vc 255 255 255 255 
vc 255 255 255 255 
vc 255 255 255 255 
vc 255 255 255 255 
vc 255 255 255 255 
vc 255 255 255 255 
vc 255 255 255 255 
vc 255 255 255 255 
vc 255 255 255 255 
vc 255 255 255 255 
vc 255 255 255 255 
vc 255 255 255 255 
vc 255 255 255 255 
vc 255 255 255 255 
vc 255 255 255 255 
vc 255 255 255 255 
vc 255 255 255 255 
vc 255 255 255 255 
vc 255 255 255 255 
vc 255 255 255 255 
vc 255 255 255 255 
vc 255 255 255 255 

vc 255 255 255 255 
vc 255 255 255 255 
vc 255 255 255 255 
vc 255 255 255 255 
vc 255 255 255 255 
vc 255 255 255 255 
vc 255 255 255 255 
vc 255 255 255 255 

vc 255 255 255 255 
vc 255 255 255 255 
vc 255 255 255 255 
vc 255 255 255 255 
vc 255 255 255 255 
vc 255 255 255 255 
vc 255 255 255 255 
vc 255 255 255 255 

vt 4.81568622589111 0.24705882370472 
vt 5 0.24705882370472 
vt 4.81568622589111 -1 
vt 4.81568622589111 0.24705882370472 
vt 4.63529396057129 0.24705882370472 
vt 4.81568622589111 -1 
vt 4.63529396057129 0.24705882370472 
vt 4.81568622589111 0.24705882370472 
vt 3.65882349014282 0.24705882370472 
vt 3.83921575546265 0.24705882370472 
vt 3.65882349014282 -1 
vt 3.65882349014282 0.24705882370472 
vt 3.47843146324158 0.24705882370472 
vt 3.65882349014282 -1 
vt 3.65882349014282 0.24705882370472 
vt 3.83921575546265 0.24705882370472 
vt 1.33725488185883 0.24705882370472 
vt 1.51764702796936 0.24705882370472 
vt 1.33725488185883 -1 
vt 1.33725488185883 0.24705882370472 
vt 1.15686273574829 0.24705882370472 
vt 1.33725488185883 -1 
vt 1.33725488185883 0.24705882370472 
vt 1.51764702796936 0.24705882370472 
vt 0.180392161011696 0.24705882370472 
vt 0.360784322023392 0.24705882370472 
vt 0.180392161011696 -1 
vt 0.180392161011696 0.24705882370472 
vt 0 0.24705882370472 
vt 0.180392161011696 -1 
vt 0.180392161011696 0.24705882370472 
vt 0.360784322023392 0.24705882370472 
vt 2.49803924560547 0.24705882370472 
vt 2.67843127250671 0.24705882370472 
vt 2.49803924560547 -1 
vt 2.49803924560547 0.24705882370472 
vt 2.31764698028564 0.24705882370472 
vt 2.49803924560547 -1 
vt 2.49803924560547 0.24705882370472 
vt 2.67843127250671 0.24705882370472 
vt 4.81568622589111 0.749019622802734 
vt 5 0.749019622802734 
vt 4.81568622589111 2 
vt 4.81568622589111 0.749019622802734 
vt 4.63529396057129 0.749019622802734 
vt 4.81568622589111 0.749019622802734 
vt 4.63529396057129 0.749019622802734 
vt 4.81568622589111 2 
vt 3.65882349014282 2 
vt 3.83921575546265 0.749019622802734 
vt 3.65882349014282 0.749019622802734 
vt 3.65882349014282 0.749019622802734 
vt 3.47843146324158 0.749019622802734 
vt 3.65882349014282 2 
vt 3.65882349014282 0.749019622802734 
vt 3.83921575546265 0.749019622802734 
vt 1.33725488185883 2 
vt 1.51764702796936 0.749019622802734 
vt 1.33725488185883 0.749019622802734 
vt 1.33725488185883 0.749019622802734 
vt 1.15686273574829 0.749019622802734 
vt 1.33725488185883 2 
vt 1.33725488185883 0.749019622802734 
vt 1.51764702796936 0.749019622802734 
vt 0.180392161011696 2 
vt 0.360784322023392 0.749019622802734 
vt 0.180392161011696 0.749019622802734 
vt 0.180392161011696 0.749019622802734 
vt 0 0.749019622802734 
vt 0.180392161011696 2 
vt 0.180392161011696 0.749019622802734 
vt 0.360784322023392 0.749019622802734 
vt 2.49803924560547 2 
vt 2.67843127250671 0.749019622802734 
vt 2.49803924560547 0.749019622802734 
vt 2.49803924560547 0.749019622802734 
vt 2.31764698028564 0.749019622802734 
vt 2.49803924560547 2 
vt 2.49803924560547 0.749019622802734 
vt 2.67843127250671 0.749019622802734 

vt 0.0901960805058479 -0.984313726425171 
vt 0.0901960805058479 -0.0274509806185961 
vt 5.90588235855103 -0.984313726425171 
vt 5.90588235855103 -0.0274509806185961 
vt 5.90588235855103 -0.0274509806185961 
vt 5.90588235855103 -0.984313726425171 
vt 0.0901960805058479 -0.0274509806185961 
vt 0.0901960805058479 -0.984313726425171 

vt 0.988235294818878 -1 
vt 0.501960813999176 -1 
vt 0.988235294818878 -0.505882382392883 
vt 0.501960813999176 -0.505882382392883 
vt 0.501960813999176 -0.505882382392883 
vt 0.988235294818878 -0.505882382392883 
vt 0.501960813999176 -1 
vt 0.988235294818878 -1 

usemtl material_C43278

f 5/1/5 3/2/3 4/3/4
f 4/3/4 3/2/3 2/4/2
f 4/3/4 2/4/2 1/5/1

f 4/6/4 1/7/1 5/8/5

f 10/9/10 8/10/8 9/11/9

f 6/13/6 10/12/10 9/14/9
f 6/13/6 9/14/9 7/15/7
f 7/15/7 9/14/9 8/16/8

f 15/17/15 13/18/13 14/19/14

f 11/21/11 15/20/15 14/22/14
f 11/21/11 14/22/14 12/23/12
f 12/23/12 14/22/14 13/24/13

f 20/25/20 18/26/18 19/27/19

f 16/29/16 20/28/20 19/30/19
f 16/29/16 19/30/19 17/31/17
f 17/31/17 19/30/19 18/32/18

f 25/33/25 23/34/23 24/35/24

f 21/37/21 25/36/25 24/38/24
f 21/37/21 24/38/24 22/39/22
f 22/39/22 24/38/24 23/40/23

f 28/42/28 30/41/30 29/43/29
f 28/42/28 29/43/29 27/44/27
f 27/44/27 29/43/29 26/45/26

f 30/46/30 26/47/26 29/48/29

f 34/49/34 33/50/33 35/51/35

f 35/52/35 31/53/31 34/54/34
f 34/54/34 31/53/31 32/55/32
f 34/54/34 32/55/32 33/56/33

f 39/57/39 38/58/38 40/59/40

f 40/60/40 36/61/36 39/62/39
f 39/62/39 36/61/36 37/63/37
f 39/62/39 37/63/37 38/64/38

f 44/65/44 43/66/43 45/67/45

f 45/68/45 41/69/41 44/70/44
f 44/70/44 41/69/41 42/71/42
f 44/70/44 42/71/42 43/72/43

f 49/73/49 48/74/48 50/75/50

f 50/76/50 46/77/46 49/78/49
f 49/78/49 46/77/46 47/79/47
f 49/78/49 47/79/47 48/80/48

usemtl material_C4328C

f 56/81/56 58/82/58 52/83/52
f 52/83/52 58/82/58 54/84/54

f 57/85/57 55/86/55 53/87/53
f 53/87/53 55/86/55 51/88/51

usemtl material_C432A0

f 55/89/55 56/90/56 51/91/51
f 51/91/51 56/90/56 52/92/52

f 58/93/58 57/94/57 54/95/54
f 54/95/54 57/94/57 53/96/53
g object_C43244


v 29.99997 5.670006 3.000001 
v 35 5.670006 3.000001 
v 35 5.670006 -3.000001 
v 29.99997 5.670006 -3.000001 
v 29.99997 -48 -3.000001 
v 29.99997 -48 3.000001 
v 35 -48 -3.000001 
v -30.00003 5.670006 -3.000001 
v -35.00003 5.670006 -3.000001 
v -35.00003 5.670006 3.000001 
v -30.00003 5.670006 3.000001 
v -35.00003 -48 3.000001 
v -30.00003 -48 3.000001 
v -30.00003 -48 -3.000001 
v 35 -48 3.000001 
v 29.99999 -40.2 -2.625 
v 29.99999 -40.2 2.625 
v 28.63002 -39.8 2.474999 
v 28.63002 -39.8 -2.474999 
v 28.63002 2.59998 -2.474999 
v 28.63002 2.59998 2.474999 
v 29.99999 2.899975 2.625 
v 29.99999 2.899975 -2.625 
v -35.00003 -48 -3.000001 
v -28.63001 -39.8 -2.474999 
v -28.63001 -39.8 2.474999 
v -30.00002 -40.2 2.625 
v -30.00002 -40.2 -2.625 
v -30.00002 2.899975 -2.625 
v -30.00002 2.899975 2.625 
v -28.63001 2.59998 2.474999 
v -28.63001 2.59998 -2.474999 
v 30.41998 6.230008 2.464801 
v 34.57999 6.230008 2.464801 
v 34.57999 6.230008 -2.464801 
v 30.41998 6.230008 -2.464801 
v -30.30003 6.230008 -2.640001 
v -34.70002 6.230008 -2.640001 
v -34.70002 6.230008 2.640001 
v -30.30003 6.230008 2.640001 
v 28.63002 2.59998 0 
v 29.99999 2.899975 0 
v 28.63002 -39.8 0 
v 29.99999 -40.2 0 
v -30.00002 2.899975 0 
v -28.63001 2.59998 0 
v -30.00002 -40.2 0 
v -28.63001 -39.8 0 

vn -0.6521509 0.365746 0.6640249 
vn 0.6521509 0.365746 0.6640249 
vn 0.6521509 0.365746 -0.6640249 
vn -0.6521509 0.365746 -0.6640249 
vn -0.7071069 0 -0.7071069 
vn -0.7071069 0 0.7071069 
vn 0.7071069 0 -0.7071069 
vn 0.6699049 0.299673 -0.6792809 
vn -0.6699049 0.299675 -0.6792799 
vn -0.6699049 0.299675 0.6792799 
vn 0.6699049 0.299673 0.6792809 
vn -0.7071069 0 0.7071069 
vn 0.7071069 0 0.7071069 
vn 0.7071069 0 -0.7071069 
vn 0.7071069 0 0.7071069 
vn -0.278204 -0.7104059 -0.6464719 
vn -0.278204 -0.7104059 0.6464719 
vn -0.675781 -0.484767 0.555266 
vn -0.675781 -0.484767 -0.555266 
vn -0.6603519 0.5094429 -0.551728 
vn -0.6603519 0.5094419 0.551728 
vn -0.228256 0.7084349 0.6678469 
vn -0.228256 0.7084349 -0.6678469 
vn -0.7071069 0 -0.7071069 
vn 0.6757789 -0.484769 -0.5552669 
vn 0.6757789 -0.484769 0.5552669 
vn 0.278198 -0.710407 0.6464729 
vn 0.278198 -0.710407 -0.6464729 
vn 0.228251 0.7084349 -0.6678479 
vn 0.228251 0.7084349 0.6678479 
vn 0.66035 0.5094439 0.551728 
vn 0.66035 0.5094439 -0.551728 
vn -0.361768 0.881313 0.303993 
vn 0.361766 0.8813139 0.303994 
vn 0.361766 0.8813139 -0.303994 
vn -0.361768 0.881313 -0.303993 
vn 0.417491 0.8250399 -0.380801 
vn -0.417487 0.8250419 -0.380801 
vn -0.417487 0.8250419 0.380801 
vn 0.417491 0.8250399 0.380801 
vn -0.7790729 0.6269329 0 
vn -0.213911 0.976853 0 
vn -0.8000849 -0.5998859 0 
vn -0.280273 -0.9599199 0 
vn 0.213906 0.976854 0 
vn 0.7790719 0.6269349 0 
vn 0.280267 -0.959922 0 
vn 0.8000829 -0.5998889 0 

vc 255 255 255 255 
vc 255 255 255 255 
vc 255 255 255 255 
vc 255 255 255 255 
vc 255 255 255 255 
vc 255 255 255 255 
vc 255 255 255 255 
vc 255 255 255 255 
vc 255 255 255 255 
vc 255 255 255 255 
vc 255 255 255 255 
vc 255 255 255 255 
vc 255 255 255 255 
vc 255 255 255 255 
vc 255 255 255 255 
vc 255 255 255 255 
vc 255 255 255 255 
vc 255 255 255 255 
vc 255 255 255 255 
vc 255 255 255 255 
vc 255 255 255 255 
vc 255 255 255 255 
vc 255 255 255 255 
vc 255 255 255 255 
vc 255 255 255 255 
vc 255 255 255 255 
vc 255 255 255 255 
vc 255 255 255 255 
vc 255 255 255 255 
vc 255 255 255 255 
vc 255 255 255 255 
vc 255 255 255 255 

vc 255 255 255 255 
vc 255 255 255 255 
vc 255 255 255 255 
vc 255 255 255 255 
vc 255 255 255 255 
vc 255 255 255 255 
vc 255 255 255 255 
vc 255 255 255 255 
vc 255 255 255 255 
vc 255 255 255 255 
vc 255 255 255 255 
vc 255 255 255 255 
vc 255 255 255 255 
vc 255 255 255 255 
vc 255 255 255 255 
vc 255 255 255 255 
vc 255 255 255 255 
vc 255 255 255 255 
vc 255 255 255 255 
vc 255 255 255 255 
vc 255 255 255 255 
vc 255 255 255 255 
vc 255 255 255 255 
vc 255 255 255 255 
vc 255 255 255 255 
vc 255 255 255 255 
vc 255 255 255 255 
vc 255 255 255 255 
vc 255 255 255 255 
vc 255 255 255 255 
vc 255 255 255 255 
vc 255 255 255 255 

vc 255 255 255 255 
vc 255 255 255 255 
vc 255 255 255 255 
vc 255 255 255 255 
vc 255 255 255 255 
vc 255 255 255 255 
vc 255 255 255 255 
vc 255 255 255 255 
vc 255 255 255 255 
vc 255 255 255 255 
vc 255 255 255 255 
vc 255 255 255 255 
vc 255 255 255 255 
vc 255 255 255 255 
vc 255 255 255 255 
vc 255 255 255 255 
vc 255 255 255 255 
vc 255 255 255 255 
vc 255 255 255 255 
vc 255 255 255 255 
vc 255 255 255 255 
vc 255 255 255 255 
vc 255 255 255 255 
vc 255 255 255 255 

vc 255 255 255 255 
vc 255 255 255 255 
vc 255 255 255 255 
vc 255 255 255 255 
vc 255 255 255 255 
vc 255 255 255 255 
vc 255 255 255 255 
vc 255 255 255 255 
vc 255 255 255 255 
vc 255 255 255 255 
vc 255 255 255 255 
vc 255 255 255 255 
vc 255 255 255 255 
vc 255 255 255 255 
vc 255 255 255 255 
vc 255 255 255 255 
vc 255 255 255 255 
vc 255 255 255 255 
vc 255 255 255 255 
vc 255 255 255 255 
vc 255 255 255 255 
vc 255 255 255 255 
vc 255 255 255 255 
vc 255 255 255 255 
vc 255 255 255 255 
vc 255 255 255 255 
vc 255 255 255 255 
vc 255 255 255 255 
vc 255 255 255 255 
vc 255 255 255 255 
vc 255 255 255 255 
vc 255 255 255 255 

vt 0.968627452850342 -1 
vt 0 -1 
vt 0.886274516582489 -0.909803926944733 
vt 0.0784313753247261 -0.909803926944733 
vt 0.886274516582489 -0.117647059261799 
vt 0.0784313753247261 -0.117647059261799 
vt 0.968627452850342 -0.0274509806185961 
vt 0 -0.0274509806185961 
vt 0.0784313753247261 -0.117647059261799 
vt 0.0784313753247261 -0.909803926944733 
vt 0 -0.0274509806185961 
vt 0 -1 
vt 0.886274516582489 -0.909803926944733 
vt 0.886274516582489 -0.117647059261799 
vt 0.968627452850342 -1 
vt 0.968627452850342 -0.0274509806185961 
vt 0 -0.0274509806185961 
vt 0.968627452850342 -0.0274509806185961 
vt 0.0549019612371922 -0.0862745121121407 
vt 0.909803926944733 -0.0862745121121407 
vt 0.0549019612371922 -0.941176474094391 
vt 0.909803926944733 -0.941176474094391 
vt 0 -1 
vt 0.968627452850342 -1 
vt 0.909803926944733 -0.941176474094391 
vt 0.909803926944733 -0.0862745121121407 
vt 0.968627452850342 -1 
vt 0.968627452850342 -0.0274509806185961 
vt 0.0549019612371922 -0.0862745121121407 
vt 0.0549019612371922 -0.941176474094391 
vt 0 -0.0274509806185961 
vt 0 -1 

vt 0.470588237047195 -0.815686285495758 
vt 0.00784313771873713 -0.815686285495758 
vt 0.470588237047195 -0.0156862754374743 
vt 0.00784313771873713 -0.0156862754374743 
vt 0.470588237047195 -0.0156862754374743 
vt 0.470588237047195 -0.815686285495758 
vt 0.00784313771873713 -0.0156862754374743 
vt 0.00784313771873713 -0.815686285495758 
vt 0.470588237047195 -0.815686285495758 
vt 0.00784313771873713 -0.815686285495758 
vt 0.470588237047195 -0.0156862754374743 
vt 0.00784313771873713 -0.0156862754374743 
vt 0.00784313771873713 -0.815686285495758 
vt 0.00784313771873713 -0.0156862754374743 
vt 0.470588237047195 -0.815686285495758 
vt 0.470588237047195 -0.0156862754374743 
vt 0.00784313771873713 -0.815686285495758 
vt 0.00784313771873713 -0.0156862754374743 
vt 0.470588237047195 -0.815686285495758 
vt 0.470588237047195 -0.0156862754374743 
vt 0.00784313771873713 -0.815686285495758 
vt 0.00784313771873713 -0.0156862754374743 
vt 0.470588237047195 -0.815686285495758 
vt 0.470588237047195 -0.0156862754374743 
vt 0.00784313771873713 -0.815686285495758 
vt 0.00784313771873713 -0.0156862754374743 
vt 0.470588237047195 -0.815686285495758 
vt 0.470588237047195 -0.0156862754374743 
vt 0.00784313771873713 -0.815686285495758 
vt 0.00784313771873713 -0.0156862754374743 
vt 0.470588237047195 -0.815686285495758 
vt 0.470588237047195 -0.0156862754374743 

vt 0.00392156885936856 -0.0196078438311815 
vt 0.745098054409027 -0.0196078438311815 
vt 0.00392156885936856 -0.513725519180298 
vt 0.745098054409027 -0.513725519180298 
vt 0.00392156885936856 -0.992156863212585 
vt 0.745098054409027 -0.992156863212585 
vt 0.745098054409027 -0.992156863212585 
vt 0.00392156885936856 -0.992156863212585 
vt 0.745098054409027 -0.513725519180298 
vt 0.00392156885936856 -0.513725519180298 
vt 0.745098054409027 -0.0196078438311815 
vt 0.00392156885936856 -0.0196078438311815 
vt 0.745098054409027 -0.992156863212585 
vt 0.00392156885936856 -0.992156863212585 
vt 0.745098054409027 -0.513725519180298 
vt 0.00392156885936856 -0.513725519180298 
vt 0.745098054409027 -0.0196078438311815 
vt 0.00392156885936856 -0.0196078438311815 
vt 0.00392156885936856 -0.0196078438311815 
vt 0.745098054409027 -0.0196078438311815 
vt 0.00392156885936856 -0.513725519180298 
vt 0.745098054409027 -0.513725519180298 
vt 0.00392156885936856 -0.992156863212585 
vt 0.745098054409027 -0.992156863212585 

vt 0.513725519180298 4.95294094085693 
vt 0.976470589637756 4.95294094085693 
vt 0.513725519180298 -0.952941179275513 
vt 0.968627452850342 -0.952941179275513 
vt 0.0117647061124444 4.95294094085693 
vt 0.937254905700684 4.95294094085693 
vt 0.0117647061124444 -0.952941179275513 
vt 0.937254905700684 -0.952941179275513 
vt 0.937254905700684 4.95294094085693 
vt 0.0117647061124444 4.95294094085693 
vt 0.937254905700684 -0.952941179275513 
vt 0.0117647061124444 -0.952941179275513 
vt 0.513725519180298 4.95294094085693 
vt 0.976470589637756 4.95294094085693 
vt 0.513725519180298 -0.952941179275513 
vt 0.968627452850342 -0.952941179275513 
vt 0.0117647061124444 -0.952941179275513 
vt 0.937254905700684 -0.952941179275513 
vt 0.0117647061124444 4.95294094085693 
vt 0.937254905700684 4.95294094085693 
vt 0.0117647061124444 -0.952941179275513 
vt 0.937254905700684 -0.952941179275513 
vt 0.0117647061124444 4.95294094085693 
vt 0.937254905700684 4.95294094085693 
vt 0.513725519180298 4.95294094085693 
vt 0.976470589637756 4.95294094085693 
vt 0.513725519180298 -0.952941179275513 
vt 0.968627452850342 -0.952941179275513 
vt 0.513725519180298 4.95294094085693 
vt 0.976470589637756 4.95294094085693 
vt 0.513725519180298 -0.952941179275513 
vt 0.968627452850342 -0.952941179275513 

usemtl material_C429D0

f 61/97/61 62/98/62 93/99/93
f 93/99/93 62/98/62 94/100/94
f 93/99/93 94/100/94 92/101/92
f 92/101/92 94/100/94 91/102/91
f 92/101/92 91/102/91 60/103/60
f 60/103/60 91/102/91 59/104/59

f 91/105/91 94/106/94 59/107/59
f 59/107/59 94/106/94 62/108/62

f 93/109/93 92/110/92 61/111/61
f 61/111/61 92/110/92 60/112/60

f 68/113/68 69/114/69 97/115/97
f 97/115/97 69/114/69 98/116/98
f 97/115/97 98/116/98 96/117/96
f 96/117/96 98/116/98 95/118/95
f 96/117/96 95/118/95 67/119/67
f 67/119/67 95/118/95 66/120/66

f 95/121/95 98/122/98 66/123/66
f 66/123/66 98/122/98 69/124/69

f 97/125/97 96/126/96 68/127/68
f 68/127/68 96/126/96 67/128/67

usemtl material_C429E4

f 63/129/63 64/130/64 62/131/62
f 62/131/62 64/130/64 59/132/59

f 61/133/61 65/134/65 62/135/62
f 62/135/62 65/134/65 63/136/63

f 70/137/70 71/138/71 68/139/68
f 68/139/68 71/138/71 69/140/69

f 72/141/72 66/142/66 71/143/71
f 71/143/71 66/142/66 69/144/69

f 73/145/73 60/146/60 64/147/64
f 64/147/64 60/146/60 59/148/59

f 65/149/65 61/150/61 73/151/73
f 73/151/73 61/150/61 60/152/60

f 82/153/82 67/154/67 72/155/72
f 72/155/72 67/154/67 66/156/66

f 70/157/70 68/158/68 82/159/82
f 82/159/82 68/158/68 67/160/67

usemtl material_C429F8

f 90/162/90 87/161/87 103/163/103
f 90/162/90 103/163/103 104/164/104
f 104/164/104 103/163/103 88/165/88
f 104/164/104 88/165/88 89/166/89

f 86/168/86 83/167/83 106/169/106
f 86/168/86 106/169/106 105/170/105
f 105/170/105 106/169/106 84/171/84
f 105/170/105 84/171/84 85/172/85

f 81/174/81 78/173/78 99/175/99
f 81/174/81 99/175/99 100/176/100
f 100/176/100 99/175/99 79/177/79
f 100/176/100 79/177/79 80/178/80

f 77/180/77 74/179/74 102/181/102
f 77/180/77 102/181/102 101/182/101
f 101/182/101 102/181/102 75/183/75
f 101/182/101 75/183/75 76/184/76

usemtl material_C42A0C

f 79/185/79 99/186/99 76/187/76
f 76/187/76 99/186/99 101/188/101

f 80/189/80 79/190/79 75/191/75
f 75/191/75 79/190/79 76/192/76

f 78/193/78 81/194/81 77/195/77
f 77/195/77 81/194/81 74/196/74

f 84/197/84 106/198/106 89/199/89
f 89/199/89 106/198/106 104/200/104

f 83/201/83 86/202/86 90/203/90
f 90/203/90 86/202/86 87/204/87

f 85/205/85 84/206/84 88/207/88
f 88/207/88 84/206/84 89/208/89

f 90/209/90 104/210/104 83/211/83
f 83/211/83 104/210/104 106/212/106

f 77/213/77 101/214/101 78/215/78
f 78/215/78 101/214/101 99/216/99
#EOF